<?xml version="1.0" encoding="UTF-8"?>
<svg id="Layer_1" xmlns="http://www.w3.org/2000/svg" viewBox="0 0 1186 346.99">
  <path d="M21.02,0h-.51C14.98,0,10.17,1.98,6.1,5.93,2.03,10,0,14.86,0,20.51v223.8c0,5.76,2.03,10.57,6.1,14.41,4.07,4.07,8.87,6.1,14.41,6.1h.51c5.54,0,10.34-2.03,14.41-6.1,4.07-3.84,6.1-8.65,6.1-14.41V20.51c0-5.65-2.03-10.51-6.1-14.58C31.37,1.98,26.56,0,21.02,0Z"/>
  <path d="M164.29,69.51c-22.61,0-41.94,8.03-57.98,24.07-16.05,16.05-24.07,35.38-24.07,57.98v92.74c0,5.76,2.03,10.57,6.1,14.41,4.07,4.07,8.87,6.1,14.41,6.1h.51c5.54,0,10.34-2.03,14.41-6.1,4.07-3.84,6.1-8.65,6.1-14.41v-92.74c0-11.19,3.9-20.74,11.7-28.65,7.91-7.91,17.52-11.87,28.82-11.87s20.74,3.96,28.65,11.87c7.8,7.91,11.7,17.46,11.7,28.65v92.74c0,5.76,2.03,10.57,6.1,14.41,4.07,4.07,8.93,6.1,14.58,6.1h.34c5.76,0,10.57-2.03,14.41-6.1,4.07-3.84,6.1-8.65,6.1-14.41v-92.74c0-22.61-8.02-41.93-24.07-57.98-16.05-16.05-35.32-24.07-57.81-24.07Z"/>
  <path d="M347.06,69.51h-25.43V20.51c0-5.65-2.03-10.51-6.1-14.58C311.45,1.98,306.65,0,301.11,0h-.51c-5.54,0-10.34,1.98-14.41,5.93-4.07,4.07-6.1,8.93-6.1,14.58v191.08c0,14.58,5.2,27.13,15.6,37.64,10.51,10.4,23.11,15.6,37.81,15.6h13.56c5.54,0,10.34-2.03,14.41-6.1,4.07-3.84,6.1-8.65,6.1-14.41v-.34c0-5.65-2.03-10.51-6.1-14.58-4.07-4.07-8.87-6.1-14.41-6.1h-13.56c-3.39,0-6.22-1.13-8.48-3.39-2.26-2.26-3.39-5.03-3.39-8.31v-100.54h25.43c5.54,0,10.34-2.03,14.41-6.1,4.07-3.84,6.1-8.65,6.1-14.41v-.34c0-5.65-2.03-10.51-6.1-14.58s-8.87-6.1-14.41-6.1Z"/>
  <path d="M556.61,172.09c-9.83,0-16.39,4.64-19.67,13.9-3.84,11.08-10.57,20.12-20.18,27.13-9.83,7.12-20.8,10.68-32.89,10.68-18.2,0-31.59-5.43-40.18-16.28,5.54-2.6,24.3-11.13,56.29-25.6,25.77-11.64,46.57-21.02,62.39-28.14,5.31-2.37,8.93-6.22,10.85-11.53.9-2.37,1.36-4.75,1.36-7.12,0-2.94-.68-5.82-2.03-8.65-7.69-16.95-19.5-30.63-35.43-41.03-16.05-10.62-33.8-15.94-53.24-15.94-26.9,0-49.9,9.55-69,28.65-19.1,19.1-28.65,42.11-28.65,69s9.55,49.91,28.65,69c19.1,19.1,42.1,28.65,69,28.65,21.02,0,40.01-6.16,56.97-18.48,16.73-11.87,28.43-27.47,35.09-46.79.9-2.49,1.36-4.92,1.36-7.29,0-3.95-1.3-7.74-3.9-11.36-4.18-5.88-9.78-8.82-16.78-8.82ZM427.76,167.68c0-15.6,5.43-28.88,16.28-39.84,10.96-10.96,24.24-16.45,39.84-16.45,17.41,0,30.29,4.98,38.66,14.92l-94.77,42.56v-1.19Z"/>
  <path d="M635.62,0h-.51c-5.54,0-10.34,1.98-14.41,5.93-4.07,4.07-6.1,8.93-6.1,14.58v223.8c0,5.76,2.03,10.57,6.1,14.41,4.07,4.07,8.87,6.1,14.41,6.1h.51c5.54,0,10.34-2.03,14.41-6.1,4.07-3.84,6.1-8.65,6.1-14.41V20.51c0-5.65-2.03-10.51-6.1-14.58C645.96,1.98,641.16,0,635.62,0Z"/>
  <path d="M724.63,0h-.51c-5.54,0-10.34,1.98-14.41,5.93-4.07,4.07-6.1,8.93-6.1,14.58v223.8c0,5.76,2.03,10.57,6.1,14.41,4.07,4.07,8.87,6.1,14.41,6.1h.51c5.54,0,10.34-2.03,14.41-6.1,4.07-3.84,6.1-8.65,6.1-14.41V20.51c0-5.65-2.03-10.51-6.1-14.58C734.97,1.98,730.17,0,724.63,0Z"/>
  <path d="M813.13,69.51h-.34c-5.65,0-10.51,2.03-14.58,6.1-4.07,4.07-6.1,8.93-6.1,14.58v154.12c0,5.76,2.03,10.57,6.1,14.41,4.07,4.07,8.93,6.1,14.58,6.1h.34c5.76,0,10.57-2.03,14.41-6.1,4.07-3.84,6.1-8.65,6.1-14.41V90.2c0-5.65-2.03-10.51-6.1-14.58-3.84-4.07-8.65-6.1-14.41-6.1Z"/>
  <path d="M1035.72,259.82c18.87-4.41,36.55-12.99,51.57-25.33,2.08-3.97,3.1-8.32,3.1-13.27,0-8.38-2.75-15.03-8.65-20.93-3.37-3.37-6.99-5.67-11.03-7.06-10.56,11.72-24.12,20.07-39,24.46-.71,6.11.29,11.73,3.07,17.19,3.04,5.49,4.1,11.62,3.09,17.75-.39,2.5-1.13,4.91-2.16,7.19Z"/>
  <path d="M1121.67,261.53c9.62-15.32,13.51-31.37,11.67-48.16-1.77-17.01-8.74-31.6-20.9-43.77-14.24-14.24-31.41-21.4-51.51-21.48-20.1.08-37.27,7.24-51.51,21.48-11.47,11.47-18.36,25.22-20.67,41.23-.46,3.26-.7,6.48-.75,9.67-20.63-2.67-39.8-12.65-53.54-28.57-.15-.17-.29-.34-.43-.51-14.58-16.84-21.87-36.51-21.87-59,0-25.21,8.87-46.68,26.62-64.43,17.74-17.75,39.16-26.62,64.26-26.62s46.68,8.87,64.43,26.62c17.74,17.75,26.62,39.22,26.62,64.43,0,2.76-.11,5.48-.34,8.16,10.42,4.27,19.94,10.68,28.49,19.23,3.05,3.05,5.82,6.26,8.33,9.59,3.35-11.7,5.05-24.02,5.05-36.98,0-36.51-12.94-67.7-38.83-93.59-26-25.88-57.25-38.83-93.76-38.83s-67.71,12.94-93.59,38.83c-25.88,25.88-38.82,57.08-38.82,93.59,0,33.57,11.19,62.9,33.57,87.99.99,1.11,1.99,2.2,2.99,3.27,24.06,25.58,57.95,39.62,93.07,39.62h5.57c.63,0,1.25-.04,1.88-.05-.02-.06-.04-.12-.06-.19,4.67.56,8.7-.83,12.06-4.19l.35-.35c2.31-2.31,3.7-5,4.16-8.08.54-3.16,0-6.16-1.62-9.01-4.31-8.31-5.81-17.13-4.5-26.45,1.31-9.47,5.39-17.63,12.24-24.48,8.47-8.47,18.63-12.7,30.49-12.7,12.01,0,22.25,4.23,30.72,12.7,8.47,8.47,12.7,18.71,12.7,30.72,0,11.86-4.23,22.02-12.7,30.49l-.58.58c-2.69,2.85-4.04,6.27-4.04,10.28,0,4.01,1.43,7.43,4.27,10.28l27.14,27.14c2.85,2.85,6.31,4.31,10.39,4.39,4,0,7.43-1.42,10.28-4.27l.35-.35c2.85-2.85,4.27-6.27,4.27-10.28-.08-4.08-1.46-7.47-4.16-10.16l-17.79-17.79Z"/>
  <path d="M1180.8,316.27c-3.47-3.46-7.7-5.16-12.7-5.08-4.93,0-9.12,1.73-12.59,5.2-3.54,3.54-5.31,7.78-5.31,12.7,0,4.93,1.73,9.12,5.2,12.59,3.54,3.54,7.78,5.32,12.7,5.31,4.93,0,9.16-1.77,12.7-5.31,3.46-3.46,5.2-7.66,5.2-12.59.08-5-1.66-9.28-5.2-12.82Z"/>
</svg>