<?xml version="1.0" encoding="UTF-8"?>
<svg id="Layer_2" data-name="Layer 2" xmlns="http://www.w3.org/2000/svg" viewBox="0 0 5019.18 1336.31">
  <defs>
    <style>
      .cls-1 {
        font-family: Formula1-Display-Regular, Formula1;
        font-size: 385.98px;
      }

      .cls-1, .cls-2 {
        fill: #000;
      }

      .cls-2 {
        stroke-width: 0px;
      }
    </style>
  </defs>
  <text class="cls-1" transform="translate(104.77 1231.34)"><tspan x="0" y="0">Solutions</tspan></text>
  <path class="cls-2" d="M1650.95,154.2c34.01-12.58,69.75-15.57,83.11-15.6h347.7c46.43,0,51.09-35.8,51.09-35.8V36.01h-414.14c-95.4,0-178.33,62.47-178.33,62.47,0,0-19.76-18.72-49.89-39.24-30.16-20.55-89.07-23.23-89.07-23.23h-782.2c-42.99,0-61.68,39.18-61.68,39.18L138.9,896.76h125.82l192.7-382.09h342.41v378.12h66.53c37.1,0,42.64-47.12,42.64-47.12v-329.17h398.57s145.04,288.79,168.68,332.7c23.67,43.94,54.59,43.4,54.59,43.4h602.08v-53.55c0-52.51-51.09-48.16-51.09-48.16h-340.17c-243.47,0-300.74-279.59-300.74-279.59,0,0,75.2-23.45,121.91-79.27,46.52-55.63,56.95-124.84,56.95-124.84,3.97-19.57,3.06-25.72,3.06-45.29,0-10.34-1.36-43.81-22.5-77.75-2.68-4.29,23.39-19.76,50.68-29.85l-.06-.09ZM794.88,407.13s-276.6-1.2-280.06-1.2c-2.84,0,131.68-266.23,135.27-266.23,4.07,0,138.9-.44,144.79-.44v267.87h0ZM1389.42,408.93c-17.46,0-483.13-.44-485.97-.44-2.62,0-2.43-271.02,0-271.02,2.99,0,464.66-1.36,485.05-1.36,25.81,0,120.37,45.26,120.37,133.92,0,102.24-92.82,138.9-119.45,138.9h0Z"/>
  <g>
    <path class="cls-2" d="M2326.26,315.44h-84.93V40.23h88.69c26.7,0,49.54,5.49,68.53,16.46,18.99,10.97,33.55,26.7,43.67,47.17,10.12,20.47,15.19,44.95,15.19,73.44s-5.11,53.33-15.32,73.98c-10.21,20.65-25.09,36.51-44.61,47.57-19.53,11.06-43.27,16.6-71.22,16.6ZM2274.66,285.87h49.45c22.75,0,41.61-4.39,56.57-13.17,14.96-8.78,26.11-21.27,33.46-37.49,7.34-16.21,11.02-35.52,11.02-57.92s-3.63-41.37-10.88-57.45c-7.26-16.08-18.1-28.44-32.52-37.09-14.42-8.64-32.38-12.97-53.89-12.97h-53.21v216.08Z"/>
    <path class="cls-2" d="M2592.87,319.74c-18.64,0-34.96-4.44-48.98-13.3-14.02-8.87-24.95-21.28-32.79-37.22-7.84-15.95-11.76-34.58-11.76-55.9s3.92-40.27,11.76-56.31c7.84-16.04,18.77-28.49,32.79-37.36,14.02-8.87,30.35-13.3,48.98-13.3s34.96,4.43,48.98,13.3c14.02,8.87,24.95,21.32,32.79,37.36,7.84,16.04,11.76,34.8,11.76,56.31s-3.92,39.96-11.76,55.9c-7.84,15.95-18.77,28.35-32.79,37.22-14.02,8.87-30.35,13.3-48.98,13.3ZM2592.87,291.25c14.15,0,25.8-3.63,34.94-10.88,9.14-7.26,15.9-16.8,20.29-28.62s6.59-24.64,6.59-38.43-2.2-26.65-6.59-38.57c-4.39-11.91-11.15-21.55-20.29-28.89-9.14-7.34-20.79-11.02-34.94-11.02s-25.8,3.67-34.94,11.02c-9.14,7.35-15.9,16.98-20.29,28.89-4.39,11.92-6.58,24.77-6.58,38.57s2.19,26.61,6.58,38.43,11.16,21.37,20.29,28.62,20.78,10.88,34.94,10.88Z"/>
    <path class="cls-2" d="M2818.63,319.74c-19.35,0-36.01-4.57-49.99-13.71-13.98-9.14-24.73-21.72-32.25-37.76-7.53-16.03-11.29-34.35-11.29-54.96s3.87-39.48,11.62-55.56c7.75-16.08,18.59-28.67,32.52-37.76,13.93-9.09,30.21-13.64,48.85-13.64,14.51,0,27.59,2.69,39.24,8.06,11.65,5.38,21.19,12.9,28.62,22.58,7.43,9.68,12.05,20.96,13.84,33.86h-31.71c-2.42-9.41-7.77-17.76-16.06-25.06-8.29-7.3-19.42-10.95-33.39-10.95-12.36,0-23.18,3.2-32.45,9.61-9.27,6.41-16.48,15.41-21.64,27.01-5.15,11.6-7.73,25.2-7.73,40.78s2.53,29.83,7.59,41.66c5.06,11.82,12.23,21.01,21.5,27.55,9.27,6.54,20.18,9.81,32.72,9.81,8.24,0,15.72-1.43,22.44-4.3s12.41-6.99,17.07-12.36c4.66-5.38,7.97-11.83,9.95-19.35h31.71c-1.79,12.18-6.2,23.14-13.24,32.86-7.03,9.72-16.31,17.43-27.82,23.11-11.51,5.69-24.88,8.53-40.11,8.53Z"/>
    <path class="cls-2" d="M3076.1,231.05v-122.02h31.71v206.41h-31.71v-34.94h-2.15c-4.84,10.48-12.36,19.37-22.58,26.67-10.21,7.3-23.11,10.95-38.7,10.95-12.9,0-24.37-2.84-34.4-8.53-10.03-5.69-17.92-14.29-23.65-25.8-5.73-11.51-8.6-26.05-8.6-43.61V109.03h31.71v129.01c0,15.05,4.23,27.06,12.7,36.02,8.47,8.96,19.28,13.44,32.45,13.44,7.88,0,15.92-2.02,24.12-6.05,8.2-4.03,15.1-10.21,20.69-18.54,5.6-8.33,8.4-18.95,8.4-31.85Z"/>
    <path class="cls-2" d="M3165.86,315.44V109.03h30.64v32.25h2.69c4.3-11.02,11.24-19.6,20.83-25.73,9.59-6.14,21.1-9.2,34.54-9.2s24.97,3.07,34.07,9.2c9.09,6.14,16.19,14.71,21.3,25.73h2.15c5.29-10.66,13.21-19.15,23.79-25.47,10.57-6.32,23.25-9.47,38.03-9.47,18.45,0,33.55,5.76,45.29,17.27,11.74,11.51,17.6,29.41,17.6,53.69v138.14h-31.71v-138.14c0-15.23-4.17-26.12-12.5-32.66-8.33-6.54-18.14-9.81-29.43-9.81-14.51,0-25.76,4.37-33.73,13.1-7.97,8.73-11.96,19.78-11.96,33.12v134.38h-32.25v-141.37c0-11.73-3.81-21.21-11.42-28.42-7.62-7.21-17.43-10.82-29.43-10.82-8.24,0-15.92,2.2-23.04,6.58-7.12,4.39-12.86,10.46-17.2,18.21-4.35,7.75-6.52,16.69-6.52,26.81v129.01h-31.71Z"/>
    <path class="cls-2" d="M3581.37,319.74c-19.89,0-37.02-4.41-51.4-13.24-14.38-8.82-25.44-21.19-33.19-37.09-7.75-15.9-11.62-34.42-11.62-55.57s3.87-39.8,11.62-55.97c7.75-16.17,18.59-28.8,32.52-37.89,13.93-9.09,30.21-13.64,48.85-13.64,10.75,0,21.37,1.79,31.85,5.37,10.48,3.59,20.02,9.39,28.62,17.4,8.6,8.02,15.45,18.61,20.56,31.78s7.66,29.39,7.66,48.65v13.44h-159.11v-27.41h126.86c0-11.65-2.31-22.04-6.92-31.18-4.62-9.14-11.16-16.35-19.62-21.64-8.47-5.29-18.43-7.93-29.9-7.93-12.63,0-23.54,3.11-32.72,9.34-9.18,6.23-16.24,14.31-21.17,24.25-4.93,9.95-7.39,20.61-7.39,31.98v18.28c0,15.59,2.71,28.78,8.13,39.58,5.42,10.8,12.97,18.99,22.64,24.59,9.68,5.6,20.92,8.4,33.73,8.4,8.33,0,15.88-1.19,22.64-3.56,6.76-2.37,12.61-5.96,17.54-10.75,4.93-4.79,8.74-10.77,11.42-17.94l30.64,8.6c-3.22,10.39-8.64,19.51-16.26,27.35-7.62,7.84-17.02,13.93-28.22,18.28-11.2,4.34-23.79,6.52-37.76,6.52Z"/>
    <path class="cls-2" d="M3746.92,191.27v124.17h-31.71V109.03h30.64v32.25h2.69c4.84-10.48,12.18-18.93,22.04-25.33,9.85-6.4,22.58-9.61,38.16-9.61,13.98,0,26.2,2.84,36.69,8.53,10.48,5.69,18.63,14.29,24.46,25.8,5.82,11.51,8.74,26.05,8.74,43.61v131.16h-31.71v-129.01c0-16.21-4.21-28.87-12.63-37.96-8.42-9.09-19.98-13.64-34.67-13.64-10.12,0-19.15,2.2-27.08,6.58s-14.18,10.8-18.75,19.22c-4.57,8.42-6.85,18.64-6.85,30.64Z"/>
    <path class="cls-2" d="M4026.43,109.03v26.88h-106.97v-26.88h106.97ZM3950.64,59.58h31.71v196.73c0,8.96,1.32,15.66,3.96,20.09,2.64,4.43,6.05,7.39,10.21,8.87,4.17,1.48,8.58,2.22,13.24,2.22,3.49,0,6.36-.2,8.6-.61,2.24-.4,4.03-.74,5.38-1.01l6.45,28.49c-2.15.81-5.15,1.63-9,2.49-3.85.85-8.74,1.28-14.65,1.28-8.96,0-17.72-1.93-26.27-5.78-8.56-3.85-15.63-9.72-21.23-17.6-5.6-7.88-8.4-17.83-8.4-29.83V59.58Z"/>
    <path class="cls-2" d="M4135.01,320.28c-13.08,0-24.95-2.49-35.61-7.46-10.66-4.97-19.13-12.18-25.4-21.63-6.27-9.45-9.41-20.9-9.41-34.34,0-11.83,2.33-21.43,6.99-28.82,4.66-7.39,10.88-13.19,18.68-17.4,7.8-4.21,16.42-7.37,25.87-9.47,9.45-2.1,18.97-3.78,28.56-5.04,12.54-1.61,22.73-2.84,30.57-3.7,7.84-.85,13.57-2.31,17.2-4.37,3.63-2.06,5.44-5.64,5.44-10.75v-1.07c0-13.26-3.61-23.56-10.82-30.91-7.21-7.34-18.12-11.02-32.72-11.02s-27.01,3.32-35.61,9.95c-8.6,6.63-14.65,13.71-18.14,21.23l-30.1-10.75c5.38-12.54,12.56-22.33,21.57-29.36,9-7.03,18.86-11.96,29.56-14.78,10.71-2.82,21.25-4.23,31.65-4.23,6.63,0,14.26.79,22.91,2.35,8.64,1.57,17.02,4.77,25.13,9.61,8.11,4.84,14.85,12.14,20.22,21.9,5.38,9.77,8.06,22.85,8.06,39.24v135.99h-31.71v-27.95h-1.61c-2.15,4.48-5.73,9.27-10.75,14.38-5.02,5.11-11.69,9.45-20.02,13.04-8.33,3.58-18.5,5.38-30.5,5.38ZM4139.85,291.79c12.54,0,23.13-2.46,31.78-7.39,8.64-4.93,15.19-11.29,19.62-19.08,4.43-7.79,6.65-15.99,6.65-24.59v-29.03c-1.34,1.61-4.28,3.07-8.8,4.37-4.52,1.3-9.72,2.42-15.59,3.36-5.87.94-11.56,1.75-17.07,2.42-5.51.67-9.97,1.23-13.37,1.68-8.24,1.07-15.92,2.8-23.05,5.17-7.12,2.38-12.86,5.91-17.2,10.62-4.35,4.7-6.52,11.09-6.52,19.15,0,11.02,4.1,19.33,12.3,24.93,8.2,5.6,18.61,8.4,31.24,8.4Z"/>
    <path class="cls-2" d="M4377.43,109.03v26.88h-106.97v-26.88h106.97ZM4301.64,59.58h31.71v196.73c0,8.96,1.32,15.66,3.96,20.09,2.64,4.43,6.05,7.39,10.21,8.87,4.17,1.48,8.58,2.22,13.24,2.22,3.49,0,6.36-.2,8.6-.61,2.24-.4,4.03-.74,5.38-1.01l6.45,28.49c-2.15.81-5.15,1.63-9,2.49-3.85.85-8.74,1.28-14.65,1.28-8.96,0-17.72-1.93-26.27-5.78-8.56-3.85-15.63-9.72-21.23-17.6-5.6-7.88-8.4-17.83-8.4-29.83V59.58Z"/>
    <path class="cls-2" d="M4441.39,74.63c-6.18,0-11.49-2.1-15.92-6.32-4.43-4.21-6.65-9.27-6.65-15.19s2.22-10.97,6.65-15.18c4.43-4.21,9.74-6.32,15.92-6.32s11.49,2.11,15.92,6.32c4.43,4.21,6.65,9.27,6.65,15.18s-2.22,10.98-6.65,15.19c-4.43,4.21-9.74,6.32-15.92,6.32ZM4425.27,315.44V109.03h31.71v206.41h-31.71Z"/>
    <path class="cls-2" d="M4598.89,319.74c-18.64,0-34.96-4.44-48.98-13.3-14.02-8.87-24.95-21.28-32.79-37.22-7.84-15.95-11.76-34.58-11.76-55.9s3.92-40.27,11.76-56.31c7.84-16.04,18.77-28.49,32.79-37.36,14.02-8.87,30.35-13.3,48.98-13.3s34.96,4.43,48.98,13.3c14.02,8.87,24.95,21.32,32.79,37.36,7.84,16.04,11.76,34.8,11.76,56.31s-3.92,39.96-11.76,55.9c-7.84,15.95-18.77,28.35-32.79,37.22-14.02,8.87-30.35,13.3-48.98,13.3ZM4598.89,291.25c14.15,0,25.8-3.63,34.94-10.88,9.14-7.26,15.9-16.8,20.29-28.62s6.59-24.64,6.59-38.43-2.2-26.65-6.59-38.57c-4.39-11.91-11.15-21.55-20.29-28.89-9.14-7.34-20.79-11.02-34.94-11.02s-25.8,3.67-34.94,11.02c-9.14,7.35-15.9,16.98-20.29,28.89-4.39,11.92-6.58,24.77-6.58,38.57s2.19,26.61,6.58,38.43c4.39,11.83,11.16,21.37,20.29,28.62s20.78,10.88,34.94,10.88Z"/>
    <path class="cls-2" d="M4772.51,191.27v124.17h-31.71V109.03h30.64v32.25h2.69c4.84-10.48,12.18-18.93,22.04-25.33,9.85-6.4,22.58-9.61,38.16-9.61,13.98,0,26.2,2.84,36.69,8.53,10.48,5.69,18.63,14.29,24.46,25.8,5.82,11.51,8.74,26.05,8.74,43.61v131.16h-31.71v-129.01c0-16.21-4.21-28.87-12.63-37.96-8.42-9.09-19.98-13.64-34.67-13.64-10.12,0-19.15,2.2-27.08,6.58s-14.18,10.8-18.75,19.22c-4.57,8.42-6.85,18.64-6.85,30.64Z"/>
    <path class="cls-2" d="M2892.81,769.54v-275.21h92.99c21.5,0,39.15,3.65,52.95,10.95,13.79,7.3,24.01,17.31,30.64,30.03,6.63,12.72,9.95,27.19,9.95,43.4s-3.32,30.59-9.95,43.14c-6.63,12.54-16.8,22.37-30.5,29.5-13.71,7.12-31.22,10.68-52.54,10.68h-75.25v-30.1h74.18c14.69,0,26.54-2.15,35.55-6.45,9-4.3,15.54-10.41,19.62-18.34,4.08-7.93,6.11-17.4,6.11-28.42s-2.06-20.65-6.18-28.89c-4.12-8.24-10.71-14.63-19.75-19.15-9.05-4.52-21.01-6.79-35.88-6.79h-58.59v245.65h-33.33ZM3022.35,645.91l67.73,123.63h-38.7l-66.65-123.63h37.63Z"/>
    <path class="cls-2" d="M3216.93,773.84c-19.89,0-37.02-4.41-51.4-13.24-14.38-8.82-25.44-21.19-33.19-37.09-7.75-15.9-11.62-34.42-11.62-55.57s3.87-39.8,11.62-55.97c7.75-16.17,18.59-28.8,32.52-37.9,13.93-9.09,30.21-13.64,48.85-13.64,10.75,0,21.37,1.79,31.85,5.38,10.48,3.58,20.02,9.39,28.62,17.4,8.6,8.02,15.45,18.61,20.56,31.78s7.66,29.39,7.66,48.65v13.44h-159.11v-27.41h126.86c0-11.65-2.31-22.04-6.92-31.18-4.62-9.14-11.16-16.35-19.62-21.64-8.47-5.29-18.43-7.93-29.9-7.93-12.63,0-23.54,3.12-32.72,9.34-9.18,6.23-16.24,14.31-21.17,24.25-4.93,9.95-7.39,20.61-7.39,31.98v18.28c0,15.59,2.71,28.78,8.13,39.58,5.42,10.8,12.97,18.99,22.64,24.59,9.68,5.6,20.92,8.4,33.73,8.4,8.33,0,15.88-1.19,22.64-3.56,6.76-2.37,12.61-5.96,17.54-10.75,4.93-4.79,8.74-10.77,11.42-17.94l30.64,8.6c-3.22,10.39-8.64,19.51-16.26,27.35-7.62,7.84-17.02,13.93-28.22,18.28-11.2,4.34-23.79,6.52-37.76,6.52Z"/>
    <path class="cls-2" d="M3496.98,609.36l-28.49,8.06c-1.79-4.75-4.41-9.39-7.86-13.91-3.45-4.52-8.13-8.26-14.04-11.22-5.91-2.96-13.49-4.43-22.71-4.43-12.63,0-23.14,2.89-31.51,8.67-8.38,5.78-12.56,13.1-12.56,21.97,0,7.88,2.87,14.11,8.6,18.68,5.73,4.57,14.69,8.38,26.88,11.42l30.64,7.53c18.45,4.48,32.2,11.31,41.26,20.49,9.05,9.18,13.57,20.99,13.57,35.41,0,11.83-3.38,22.4-10.14,31.71-6.77,9.32-16.19,16.66-28.29,22.04-12.09,5.38-26.16,8.06-42.2,8.06-21.05,0-38.48-4.57-52.27-13.71-13.8-9.14-22.53-22.49-26.21-40.05l30.1-7.53c2.87,11.11,8.31,19.44,16.33,25,8.02,5.56,18.52,8.33,31.51,8.33,14.78,0,26.54-3.16,35.27-9.47,8.74-6.31,13.1-13.91,13.1-22.78,0-7.17-2.51-13.19-7.53-18.07-5.02-4.88-12.72-8.53-23.11-10.95l-34.4-8.06c-18.9-4.48-32.77-11.44-41.59-20.9-8.83-9.45-13.24-21.3-13.24-35.54,0-11.65,3.29-21.95,9.88-30.91,6.58-8.96,15.59-15.99,27.01-21.1,11.42-5.11,24.39-7.66,38.9-7.66,20.43,0,36.48,4.48,48.18,13.44,11.69,8.96,20,20.78,24.93,35.48Z"/>
    <path class="cls-2" d="M3694.79,609.36l-28.49,8.06c-1.79-4.75-4.41-9.39-7.86-13.91-3.45-4.52-8.13-8.26-14.04-11.22-5.91-2.96-13.49-4.43-22.71-4.43-12.63,0-23.14,2.89-31.51,8.67-8.38,5.78-12.56,13.1-12.56,21.97,0,7.88,2.87,14.11,8.6,18.68,5.73,4.57,14.69,8.38,26.88,11.42l30.64,7.53c18.45,4.48,32.2,11.31,41.26,20.49,9.05,9.18,13.57,20.99,13.57,35.41,0,11.83-3.38,22.4-10.14,31.71-6.77,9.32-16.19,16.66-28.29,22.04-12.09,5.38-26.16,8.06-42.2,8.06-21.05,0-38.48-4.57-52.27-13.71-13.8-9.14-22.53-22.49-26.21-40.05l30.1-7.53c2.87,11.11,8.31,19.44,16.33,25,8.02,5.56,18.52,8.33,31.51,8.33,14.78,0,26.54-3.16,35.27-9.47,8.74-6.31,13.1-13.91,13.1-22.78,0-7.17-2.51-13.19-7.53-18.07-5.02-4.88-12.72-8.53-23.11-10.95l-34.4-8.06c-18.9-4.48-32.77-11.44-41.59-20.9-8.83-9.45-13.24-21.3-13.24-35.54,0-11.65,3.29-21.95,9.88-30.91,6.58-8.96,15.59-15.99,27.01-21.1,11.42-5.11,24.39-7.66,38.9-7.66,20.43,0,36.48,4.48,48.18,13.44,11.69,8.96,20,20.78,24.93,35.48Z"/>
    <path class="cls-2" d="M3830.24,773.84c-18.64,0-34.96-4.44-48.98-13.3-14.02-8.87-24.95-21.28-32.79-37.22-7.84-15.95-11.76-34.58-11.76-55.9s3.92-40.27,11.76-56.31c7.84-16.03,18.77-28.49,32.79-37.36,14.02-8.87,30.35-13.3,48.98-13.3s34.96,4.43,48.98,13.3c14.02,8.87,24.95,21.32,32.79,37.36,7.84,16.04,11.76,34.8,11.76,56.31s-3.92,39.96-11.76,55.9c-7.84,15.95-18.77,28.35-32.79,37.22-14.02,8.87-30.35,13.3-48.98,13.3ZM3830.24,745.35c14.15,0,25.8-3.63,34.94-10.88,9.14-7.26,15.9-16.8,20.29-28.62,4.39-11.83,6.59-24.64,6.59-38.43s-2.2-26.65-6.59-38.57c-4.39-11.91-11.15-21.55-20.29-28.89-9.14-7.34-20.79-11.02-34.94-11.02s-25.8,3.68-34.94,11.02c-9.14,7.35-15.9,16.98-20.29,28.89-4.39,11.92-6.58,24.77-6.58,38.57s2.19,26.61,6.58,38.43,11.16,21.37,20.29,28.62,20.78,10.88,34.94,10.88Z"/>
    <path class="cls-2" d="M4102.23,685.15v-122.02h31.71v206.41h-31.71v-34.94h-2.15c-4.84,10.48-12.36,19.37-22.58,26.67-10.21,7.3-23.11,10.95-38.7,10.95-12.9,0-24.37-2.84-34.4-8.53-10.03-5.69-17.92-14.29-23.65-25.8-5.73-11.51-8.6-26.05-8.6-43.61v-131.16h31.71v129.01c0,15.05,4.23,27.06,12.7,36.02,8.47,8.96,19.28,13.44,32.45,13.44,7.88,0,15.92-2.02,24.12-6.05,8.2-4.03,15.1-10.21,20.69-18.54,5.6-8.33,8.4-18.95,8.4-31.85Z"/>
    <path class="cls-2" d="M4191.99,769.54v-206.41h30.64v31.18h2.15c3.76-10.21,10.57-18.5,20.43-24.86,9.85-6.36,20.96-9.54,33.33-9.54,2.33,0,5.24.05,8.74.13,3.49.09,6.13.23,7.93.4v32.25c-1.07-.27-3.52-.69-7.32-1.28-3.81-.58-7.82-.87-12.03-.87-10.03,0-18.97,2.08-26.81,6.25-7.84,4.17-14.02,9.9-18.54,17.2-4.52,7.3-6.79,15.61-6.79,24.93v130.62h-31.71Z"/>
    <path class="cls-2" d="M4416.67,773.84c-19.35,0-36.01-4.57-49.99-13.71-13.98-9.14-24.73-21.72-32.25-37.76-7.53-16.03-11.29-34.35-11.29-54.96s3.87-39.48,11.62-55.56c7.75-16.08,18.59-28.67,32.52-37.76,13.93-9.09,30.21-13.64,48.85-13.64,14.51,0,27.59,2.69,39.24,8.06,11.65,5.38,21.19,12.9,28.62,22.58,7.43,9.67,12.05,20.96,13.84,33.86h-31.71c-2.42-9.41-7.77-17.76-16.06-25.06-8.29-7.3-19.42-10.95-33.39-10.95-12.36,0-23.18,3.21-32.45,9.61-9.27,6.41-16.48,15.41-21.64,27.01s-7.73,25.2-7.73,40.78,2.53,29.83,7.59,41.66c5.06,11.82,12.23,21.01,21.5,27.55,9.27,6.54,20.18,9.81,32.72,9.81,8.24,0,15.72-1.43,22.44-4.3s12.41-6.99,17.07-12.36c4.66-5.38,7.97-11.83,9.95-19.35h31.71c-1.79,12.18-6.2,23.14-13.24,32.86-7.03,9.72-16.31,17.43-27.82,23.11-11.51,5.69-24.88,8.53-40.11,8.53Z"/>
    <path class="cls-2" d="M4630.6,773.84c-19.89,0-37.02-4.41-51.4-13.24-14.38-8.82-25.44-21.19-33.19-37.09-7.75-15.9-11.62-34.42-11.62-55.57s3.87-39.8,11.62-55.97c7.75-16.17,18.59-28.8,32.52-37.9,13.93-9.09,30.21-13.64,48.85-13.64,10.75,0,21.37,1.79,31.85,5.38,10.48,3.58,20.02,9.39,28.62,17.4,8.6,8.02,15.45,18.61,20.56,31.78s7.66,29.39,7.66,48.65v13.44h-159.11v-27.41h126.86c0-11.65-2.31-22.04-6.92-31.18-4.62-9.14-11.16-16.35-19.62-21.64-8.47-5.29-18.43-7.93-29.9-7.93-12.63,0-23.54,3.12-32.72,9.34-9.18,6.23-16.24,14.31-21.17,24.25-4.93,9.95-7.39,20.61-7.39,31.98v18.28c0,15.59,2.71,28.78,8.13,39.58,5.42,10.8,12.97,18.99,22.64,24.59,9.68,5.6,20.92,8.4,33.73,8.4,8.33,0,15.88-1.19,22.64-3.56,6.76-2.37,12.61-5.96,17.54-10.75,4.93-4.79,8.74-10.77,11.42-17.94l30.64,8.6c-3.22,10.39-8.64,19.51-16.26,27.35-7.62,7.84-17.02,13.93-28.22,18.28-11.2,4.34-23.79,6.52-37.76,6.52Z"/>
    <path class="cls-2" d="M4910.65,609.36l-28.49,8.06c-1.79-4.75-4.41-9.39-7.86-13.91-3.45-4.52-8.13-8.26-14.04-11.22-5.91-2.96-13.49-4.43-22.71-4.43-12.63,0-23.14,2.89-31.51,8.67-8.38,5.78-12.56,13.1-12.56,21.97,0,7.88,2.87,14.11,8.6,18.68,5.73,4.57,14.69,8.38,26.88,11.42l30.64,7.53c18.45,4.48,32.2,11.31,41.26,20.49,9.05,9.18,13.57,20.99,13.57,35.41,0,11.83-3.38,22.4-10.14,31.71-6.77,9.32-16.19,16.66-28.29,22.04-12.09,5.38-26.16,8.06-42.2,8.06-21.05,0-38.48-4.57-52.27-13.71-13.8-9.14-22.53-22.49-26.21-40.05l30.1-7.53c2.87,11.11,8.31,19.44,16.33,25,8.02,5.56,18.52,8.33,31.51,8.33,14.78,0,26.54-3.16,35.27-9.47,8.74-6.31,13.1-13.91,13.1-22.78,0-7.17-2.51-13.19-7.53-18.07-5.02-4.88-12.72-8.53-23.11-10.95l-34.4-8.06c-18.9-4.48-32.77-11.44-41.59-20.9-8.83-9.45-13.24-21.3-13.24-35.54,0-11.65,3.29-21.95,9.88-30.91,6.58-8.96,15.59-15.99,27.01-21.1,11.42-5.11,24.39-7.66,38.9-7.66,20.43,0,36.48,4.48,48.18,13.44,11.69,8.96,20,20.78,24.93,35.48Z"/>
    <path class="cls-2" d="M3393.77,977.99v-29.56h206.41v29.56h-86.54v245.65h-33.33v-245.65h-86.54Z"/>
    <path class="cls-2" d="M3777.56,1139.25v-122.02h31.71v206.41h-31.71v-34.94h-2.15c-4.84,10.48-12.36,19.37-22.58,26.67-10.21,7.3-23.11,10.95-38.7,10.95-12.9,0-24.37-2.84-34.4-8.53-10.03-5.69-17.92-14.29-23.65-25.8-5.73-11.51-8.6-26.05-8.6-43.61v-131.16h31.71v129.01c0,15.05,4.23,27.06,12.7,36.02,8.47,8.96,19.28,13.44,32.45,13.44,7.88,0,15.92-2.02,24.12-6.05,8.2-4.03,15.1-10.21,20.69-18.54,5.6-8.33,8.4-18.95,8.4-31.85Z"/>
    <path class="cls-2" d="M3957.09,1017.23v26.88h-106.97v-26.88h106.97ZM3881.3,967.78h31.71v196.73c0,8.96,1.32,15.66,3.96,20.09,2.64,4.43,6.05,7.39,10.21,8.87,4.17,1.48,8.58,2.22,13.24,2.22,3.49,0,6.36-.2,8.6-.61,2.24-.4,4.03-.74,5.38-1.01l6.45,28.49c-2.15.81-5.15,1.63-9,2.49-3.85.85-8.74,1.28-14.65,1.28-8.96,0-17.72-1.93-26.27-5.78-8.56-3.85-15.63-9.72-21.23-17.6-5.6-7.88-8.4-17.83-8.4-29.83v-205.33Z"/>
    <path class="cls-2" d="M4088.79,1227.94c-18.64,0-34.96-4.44-48.98-13.3-14.02-8.87-24.95-21.28-32.79-37.22-7.84-15.95-11.76-34.58-11.76-55.9s3.92-40.27,11.76-56.31c7.84-16.03,18.77-28.49,32.79-37.36,14.02-8.87,30.35-13.3,48.98-13.3s34.96,4.43,48.98,13.3c14.02,8.87,24.95,21.32,32.79,37.36,7.84,16.04,11.76,34.8,11.76,56.31s-3.92,39.96-11.76,55.9c-7.84,15.95-18.77,28.35-32.79,37.22-14.02,8.87-30.35,13.3-48.98,13.3ZM4088.79,1199.45c14.15,0,25.8-3.63,34.94-10.88,9.14-7.26,15.9-16.8,20.29-28.62,4.39-11.83,6.59-24.64,6.59-38.43s-2.2-26.65-6.59-38.57c-4.39-11.91-11.15-21.55-20.29-28.89-9.14-7.34-20.79-11.02-34.94-11.02s-25.8,3.68-34.94,11.02c-9.14,7.35-15.9,16.98-20.29,28.89-4.39,11.92-6.58,24.77-6.58,38.57s2.19,26.61,6.58,38.43,11.16,21.37,20.29,28.62c9.14,7.26,20.78,10.88,34.94,10.88Z"/>
    <path class="cls-2" d="M4230.69,1223.64v-206.41h30.64v31.18h2.15c3.76-10.21,10.57-18.5,20.43-24.86,9.85-6.36,20.96-9.54,33.33-9.54,2.33,0,5.24.05,8.74.13,3.49.09,6.13.23,7.93.4v32.25c-1.07-.27-3.52-.69-7.32-1.28-3.81-.58-7.82-.87-12.03-.87-10.03,0-18.97,2.08-26.81,6.25-7.84,4.17-14.02,9.9-18.54,17.2-4.52,7.3-6.79,15.61-6.79,24.93v130.62h-31.71Z"/>
    <path class="cls-2" d="M4387.64,982.83c-6.18,0-11.49-2.1-15.92-6.31-4.43-4.21-6.65-9.27-6.65-15.19s2.22-10.97,6.65-15.19c4.43-4.21,9.74-6.32,15.92-6.32s11.49,2.11,15.92,6.32c4.43,4.21,6.65,9.27,6.65,15.19s-2.22,10.97-6.65,15.19c-4.43,4.21-9.74,6.31-15.92,6.31ZM4371.52,1223.64v-206.41h31.71v206.41h-31.71Z"/>
    <path class="cls-2" d="M4522.02,1228.48c-13.08,0-24.95-2.49-35.61-7.46-10.66-4.97-19.13-12.18-25.4-21.63-6.27-9.45-9.41-20.9-9.41-34.34,0-11.83,2.33-21.43,6.99-28.82,4.66-7.39,10.88-13.19,18.68-17.4,7.8-4.21,16.42-7.37,25.87-9.47,9.45-2.1,18.97-3.78,28.56-5.04,12.54-1.61,22.73-2.84,30.57-3.7,7.84-.85,13.57-2.31,17.2-4.37,3.63-2.06,5.44-5.64,5.44-10.75v-1.07c0-13.26-3.61-23.56-10.82-30.91-7.21-7.34-18.12-11.02-32.72-11.02s-27.01,3.32-35.61,9.95c-8.6,6.63-14.65,13.71-18.14,21.23l-30.1-10.75c5.38-12.54,12.56-22.33,21.57-29.36,9-7.03,18.86-11.96,29.56-14.78,10.71-2.82,21.25-4.23,31.65-4.23,6.63,0,14.26.79,22.91,2.35,8.64,1.57,17.02,4.77,25.13,9.61,8.11,4.84,14.85,12.14,20.22,21.9,5.38,9.77,8.06,22.85,8.06,39.24v135.99h-31.71v-27.95h-1.61c-2.15,4.48-5.73,9.27-10.75,14.38-5.02,5.11-11.69,9.45-20.02,13.04-8.33,3.58-18.5,5.38-30.5,5.38ZM4526.86,1199.99c12.54,0,23.13-2.46,31.78-7.39,8.64-4.93,15.19-11.29,19.62-19.08,4.43-7.79,6.65-15.99,6.65-24.59v-29.03c-1.34,1.61-4.28,3.07-8.8,4.37-4.52,1.3-9.72,2.42-15.59,3.36-5.87.94-11.56,1.75-17.07,2.42-5.51.67-9.97,1.23-13.37,1.68-8.24,1.07-15.92,2.8-23.05,5.17-7.12,2.38-12.86,5.91-17.2,10.62-4.35,4.7-6.52,11.09-6.52,19.15,0,11.02,4.1,19.33,12.3,24.93,8.2,5.6,18.61,8.4,31.24,8.4Z"/>
    <path class="cls-2" d="M4706.39,948.43v275.21h-31.71v-275.21h31.71Z"/>
    <path class="cls-2" d="M4910.65,1063.46l-28.49,8.06c-1.79-4.75-4.41-9.39-7.86-13.91-3.45-4.52-8.13-8.26-14.04-11.22-5.91-2.96-13.49-4.43-22.71-4.43-12.63,0-23.14,2.89-31.51,8.67-8.38,5.78-12.56,13.1-12.56,21.97,0,7.88,2.87,14.11,8.6,18.68,5.73,4.57,14.69,8.38,26.88,11.42l30.64,7.53c18.45,4.48,32.2,11.31,41.26,20.49,9.05,9.18,13.57,20.99,13.57,35.41,0,11.83-3.38,22.4-10.14,31.71-6.77,9.32-16.19,16.66-28.29,22.04-12.09,5.38-26.16,8.06-42.2,8.06-21.05,0-38.48-4.57-52.27-13.71-13.8-9.14-22.53-22.49-26.21-40.05l30.1-7.53c2.87,11.11,8.31,19.44,16.33,25,8.02,5.56,18.52,8.33,31.51,8.33,14.78,0,26.54-3.16,35.27-9.47,8.74-6.31,13.1-13.91,13.1-22.78,0-7.17-2.51-13.19-7.53-18.07-5.02-4.88-12.72-8.53-23.11-10.95l-34.4-8.06c-18.9-4.48-32.77-11.44-41.59-20.9-8.83-9.45-13.24-21.3-13.24-35.54,0-11.65,3.29-21.95,9.88-30.91,6.58-8.96,15.59-15.99,27.01-21.1,11.42-5.11,24.39-7.66,38.9-7.66,20.43,0,36.48,4.48,48.18,13.44,11.69,8.96,20,20.78,24.93,35.48Z"/>
  </g>
</svg>