<?xml version="1.0" encoding="UTF-8"?>
<svg id="Layer_2" xmlns="http://www.w3.org/2000/svg" viewBox="0 0 315.39 346.99">
  <defs>
    <style>
      .cls-1 {
        fill: #c8b6ff;
      }
    </style>
  </defs>
  <g id="Layer_1-2" data-name="Layer_1">
    <g>
      <path class="cls-1" d="M251.06,261.53c9.62-15.32,13.51-31.37,11.67-48.16-1.77-17.01-8.74-31.6-20.9-43.77-14.24-14.24-31.41-21.4-51.51-21.48-20.1.08-37.27,7.24-51.51,21.48-11.47,11.47-18.36,25.22-20.67,41.23-.46,3.26-.7,6.48-.75,9.67-20.63-2.67-39.8-12.65-53.54-28.57-.15-.17-.29-.34-.43-.51-14.58-16.84-21.87-36.51-21.87-59,0-25.21,8.87-46.68,26.62-64.43,17.74-17.75,39.16-26.62,64.26-26.62s46.68,8.87,64.43,26.62c17.74,17.75,26.62,39.22,26.62,64.43,0,2.76-.11,5.48-.34,8.16,10.42,4.27,19.94,10.68,28.49,19.23,3.05,3.05,5.82,6.26,8.33,9.59,3.35-11.7,5.05-24.02,5.05-36.98,0-36.51-12.94-67.7-38.83-93.59C200.17,12.94,168.92,0,132.41,0S64.71,12.94,38.82,38.83C12.94,64.71,0,95.91,0,132.41c0,33.57,11.19,62.9,33.57,87.99.99,1.11,1.99,2.2,2.99,3.27,24.06,25.58,57.95,39.62,93.07,39.62h5.57c.63,0,1.25-.04,1.88-.05-.02-.06-.04-.12-.06-.19,4.67.56,8.7-.83,12.06-4.19l.35-.35c2.31-2.31,3.7-5,4.16-8.08.54-3.16,0-6.16-1.62-9.01-4.31-8.31-5.81-17.13-4.5-26.45,1.31-9.47,5.39-17.63,12.24-24.48,8.47-8.47,18.63-12.7,30.49-12.7,12.01,0,22.25,4.23,30.72,12.7,8.47,8.47,12.7,18.71,12.7,30.72,0,11.86-4.23,22.02-12.7,30.49l-.58.58c-2.69,2.85-4.04,6.27-4.04,10.28,0,4.01,1.43,7.43,4.27,10.28l27.14,27.14c2.85,2.85,6.31,4.31,10.39,4.39,4,0,7.43-1.42,10.28-4.27l.35-.35c2.85-2.85,4.27-6.27,4.27-10.28-.08-4.08-1.46-7.47-4.16-10.16l-17.79-17.79Z"/>
      <path class="cls-1" d="M310.19,316.27c-3.47-3.46-7.7-5.16-12.7-5.08-4.93,0-9.12,1.73-12.59,5.2-3.54,3.54-5.31,7.78-5.31,12.7,0,4.93,1.73,9.12,5.2,12.59,3.54,3.54,7.78,5.32,12.7,5.31,4.93,0,9.16-1.77,12.7-5.31,3.46-3.46,5.2-7.66,5.2-12.59.08-5-1.66-9.28-5.2-12.82Z"/>
    </g>
  </g>
</svg>